<svg xmlns="http://www.w3.org/2000/svg" id="Ebene_1" viewBox="0 0 500 500">
  
  <path d="M174.67334,434.32704v-8.47817c11.75045-1.32007,20.56328-5.74508,26.43851-13.25644,5.87522-7.52995,15.95235-28.09324,30.21278-61.68985l95.1935-224.2439h9.09172l113.86035,259.03043c7.58573,17.16086,13.62829,27.77717,18.18345,31.84892,4.53657,4.05316,12.15948,6.82344,22.86875,8.31084v8.47817h-116.203v-8.47817c13.3494-1.18992,21.95772-2.62154,25.82495-4.33205,3.86724-1.69192,5.80085-5.87522,5.80085-12.54992,0-2.21251-.7437-6.13552-2.2311-11.75045-1.4874-5.63352-3.56976-11.56452-6.24707-17.77441l-18.295-43.95262h-120.42349c-11.862,29.89671-18.94574,48.13593-21.2512,54.71767-2.30547,6.60033-3.4582,11.80622-3.4582,15.65487,0,7.69729,3.12354,13.03333,9.35202,15.98953,3.86724,1.78488,11.1369,3.10494,21.82757,3.99738v8.47817h-90.54538ZM371.45615,316.9713l-52.35642-125.8339-52.59813,125.8339h104.95455Z" fill="#fff"/>
  <path d="M9.92537,333.20254v-7.38121c10.24446-1.15273,17.90456-5.00138,23.03608-11.54593,5.11293-6.54455,13.88858-24.44911,26.30836-53.73227l82.88528-195.25822h7.9204l99.1537,225.56397c6.60033,14.94835,11.88059,24.18882,15.8222,27.72139,3.9602,3.55116,10.59771,5.96819,19.93114,7.25107v7.38121h-101.19887v-7.38121c11.63889-1.04118,19.13166-2.28688,22.4969-3.77427s5.03856-5.13152,5.03856-10.93238c0-1.91503-.65074-5.33604-1.93362-10.24446-1.30147-4.88982-3.10494-10.03994-5.4476-15.46894l-15.93376-38.26332h-104.86159c-10.33742,26.02947-16.49153,41.90745-18.49952,47.65253-2.00799,5.72648-3.01198,10.28164-3.01198,13.62829,0,6.71189,2.7145,11.34141,8.14351,13.92577,3.36524,1.54318,9.70527,2.69591,19.00151,3.47679v7.38121H9.92537ZM181.29226,230.99968l-45.58876-109.56548-45.81187,109.56548h91.40063Z" fill="#fff"/>
</svg>